<?xml version="1.0" standalone="no"?><!DOCTYPE svg PUBLIC "-//W3C//DTD SVG 1.1//EN" "http://www.w3.org/Graphics/SVG/1.1/DTD/svg11.dtd"><svg t="1576283819726" class="icon" viewBox="0 0 1024 1024" version="1.1" xmlns="http://www.w3.org/2000/svg" p-id="3056" xmlns:xlink="http://www.w3.org/1999/xlink" width="500" height="500"><defs><style type="text/css"></style></defs><path d="M543.104 957.248c-80.192 0-153.728-24.96-201.088-62.4-24.064 6.72-54.848 17.536-74.24 30.912-16.64 11.392-14.592 23.04-11.584 27.776 13.12 20.736 225.6 13.248 286.912 6.784v-3.072z" fill="#FAAD08" p-id="3057"></path><path d="M528.64 957.248c80.192 0 153.728-24.96 201.152-62.4 24 6.72 54.784 17.536 74.24 30.912 16.64 11.392 14.528 23.04 11.52 27.776-13.12 20.736-225.6 13.248-286.912 6.784v-3.072z" fill="#FAAD08" p-id="3058"></path><path d="M529.152 474.496a1136.384 1136.384 0 0 0 273.472-35.328c8.512-2.24 13.12-6.4 13.12-6.4 0-1.088 0.512-20.928 0.512-31.104 0-171.84-83.136-344.512-287.616-344.512S241.024 229.824 241.024 401.664c0 10.24 0.512 30.016 0.512 31.168 0 0 3.712 3.84 10.56 5.632 33.088 8.96 140.8 35.2 276.032 36.032h1.024zM892.288 619.776c-8.128-26.048-19.2-56.512-30.464-85.76 0 0-6.4-0.768-9.664 0.192-100.736 29.184-222.784 47.808-315.84 46.72h-0.96c-92.48 1.088-213.76-17.28-314.112-46.208-3.84-1.152-11.392-0.64-11.392-0.64a1466.24 1466.24 0 0 0-30.4 85.76c-38.72 124.352-26.24 175.808-16.64 176.96 20.48 2.496 79.808-93.632 79.808-93.632 0 97.664 88.32 247.616 290.56 248.96h5.376c202.24-1.344 290.56-151.296 290.56-248.96 0 0 59.264 96.128 79.808 93.632 9.536-1.152 22.08-52.608-16.64-177.024" fill="#000000" p-id="3059"></path><path d="M466.368 316.928c-27.904 1.28-51.712-30.08-53.248-69.952-1.472-39.872 19.84-73.216 47.808-74.496 27.84-1.216 51.712 30.08 53.184 70.016 1.536 39.872-19.84 73.216-47.744 74.432m206.72-69.952c-1.536 39.808-25.344 71.168-53.248 69.952-27.904-1.28-49.28-34.56-47.744-74.432 1.472-39.872 25.344-71.232 53.184-70.016 27.904 1.28 49.28 34.56 47.744 74.496" fill="#FFFFFF" p-id="3060"></path><path d="M715.968 368.64c-7.36-17.6-81.088-37.248-172.352-37.248h-1.024c-91.264 0-164.992 19.648-172.352 37.248a6.208 6.208 0 0 0 0.512 5.888c6.144 9.728 88 57.984 171.84 57.984h1.024c83.84 0 165.696-48.256 171.84-57.984a6.4 6.4 0 0 0 0.512-5.888" fill="#FAAD08" p-id="3061"></path><path d="M499.648 259.2c1.28 17.6-7.424 33.216-19.264 34.944-11.904 1.664-22.592-11.2-23.872-28.8-1.28-17.6 7.424-33.28 19.264-34.944 11.904-1.728 22.592 11.2 23.872 28.8m73.088 8.768c2.56-4.544 19.84-28.544 55.616-19.84 9.408 2.304 13.76 5.76 14.72 7.04 1.28 1.92 1.664 4.736 0.32 8.512-2.752 7.424-8.32 7.232-11.52 5.76-1.92-0.896-26.88-17.6-49.92 7.296-1.536 1.664-4.352 2.24-7.04 0.256-2.688-2.048-3.776-6.144-2.176-9.024" fill="#000000" p-id="3062"></path><path d="M536.32 584.512h-0.96c-63.552 0.704-140.672-7.552-215.296-21.952-6.4 36.288-10.24 81.856-6.912 136.192 8.32 137.408 91.584 223.744 220.16 225.024h5.12c128.576-1.28 211.84-87.68 220.16-225.024a580.608 580.608 0 0 0-6.912-136.192c-74.688 14.4-151.744 22.72-215.36 21.952" fill="#FFFFFF" p-id="3063" data-spm-anchor-id="a313x.7781069.0.i1" class="selected"></path><path d="M355.264 577.024v137.472s64.96 12.672 130.048 3.84v-126.72a1233.024 1233.024 0 0 1-130.048-14.592" fill="#EB1C26" p-id="3064"></path><path d="M820.096 432.512s-121.984 40.384-283.712 41.6h-0.96c-161.536-1.216-283.328-41.408-283.776-41.6L210.816 539.52c102.144 32.256 228.8 53.12 324.608 51.84h0.96c95.744 1.28 222.4-19.584 324.544-51.84l-40.832-107.008z" fill="#EB1C26" p-id="3065" data-spm-anchor-id="a313x.7781069.0.i0" class="selected"></path></svg>