<?xml version="1.0" standalone="no"?><!DOCTYPE svg PUBLIC "-//W3C//DTD SVG 1.1//EN" "http://www.w3.org/Graphics/SVG/1.1/DTD/svg11.dtd"><svg t="1576283856055" class="icon" viewBox="0 0 1024 1024" version="1.1" xmlns="http://www.w3.org/2000/svg" p-id="3838" xmlns:xlink="http://www.w3.org/1999/xlink" width="500" height="500"><defs><style type="text/css"></style></defs><path d="M512 1024C229.239467 1024 0 794.760533 0 512S229.239467 0 512 0 1024 229.239467 1024 512 794.760533 1024 512 1024z m107.906844-626.369422h20.093156c-20.093156-94.754133-115.575467-162.952533-225.302756-162.952534-124.017778 0-222.708622 86.016-222.708622 198.587734 0 65.103644 34.588444 115.5072 89.429334 156.945066l-23.096889 71.133867 77.983289-41.460622c25.486222 6.826667 51.632356 10.786133 77.983288 11.810133h20.115912a133.597867 133.597867 0 0 1-5.870934-47.468089 193.1264 193.1264 0 0 1 57.480534-134.417066 181.361778 181.361778 0 0 1 133.097244-52.178489h0.796444zM504.6272 341.333333c15.860622 0 28.694756 14.290489 28.694756 31.926045 0 17.6128-12.834133 31.903289-28.672 31.903289-17.658311 1.956978-33.405156-12.310756-35.316623-31.9488 0-22.277689 17.453511-31.880533 34.724978-31.880534h0.568889z m-171.030756 63.874845c-17.544533 1.456356-32.995556-12.652089-34.929777-31.880534 1.934222-19.228444 17.385244-33.336889 34.929777-31.903288 16.042667 0 29.0816 14.290489 29.0816 31.926044 0 17.590044-13.038933 31.880533-29.0816 31.880533z m498.392178 169.597155c0-92.228267-90.112-169.483378-191.988622-169.483377-107.770311 0-192.011378 77.255111-192.011378 169.460622 0 92.251022 84.468622 169.483378 192.011378 169.483378a264.237511 264.237511 0 0 0 66.833067-11.855645l60.757333 35.589689-17.408-59.528533c49.425067-35.612444 81.009778-83.285333 81.009778-133.870934l0.796444 0.2048z m-258.434844-20.2752c-10.422044 0-18.887111-9.489067-18.887111-21.208177 0-11.696356 8.465067-21.208178 18.887111-21.208178 11.741867-1.365333 22.300444 8.009956 23.779555 21.117155-1.388089 13.198222-11.969422 22.710044-23.779555 21.2992z m128 0.091023c-10.422044 0-18.887111-9.511822-18.887111-21.208178 0-11.764622 8.465067-21.276444 18.887111-21.276445 11.741867-1.410844 22.300444 8.009956 23.779555 21.162667-2.184533 12.9024-12.583822 22.027378-24.257422 21.321956h0.477867z" fill="#0ABC64" p-id="3839"></path></svg>