<?xml version="1.0" standalone="no"?><!DOCTYPE svg PUBLIC "-//W3C//DTD SVG 1.1//EN" "http://www.w3.org/Graphics/SVG/1.1/DTD/svg11.dtd"><svg t="1576283949415" class="icon" viewBox="0 0 1024 1024" version="1.1" xmlns="http://www.w3.org/2000/svg" p-id="6975" xmlns:xlink="http://www.w3.org/1999/xlink" width="500" height="500"><defs><style type="text/css"></style></defs><path d="M758.536411 1021.358047 265.462567 1021.358047c-29.18826 0-52.870749-23.583313-52.870749-52.838031L212.591818 52.869726c0-29.18826 23.682488-52.870749 52.870749-52.870749l493.072822 0c29.156565 0 52.839054 23.617053 52.839054 52.870749l0 915.716748C811.374442 997.774734 787.691954 1021.358047 758.536411 1021.358047L758.536411 1021.358047zM511.966771 968.586474c19.483379 0 35.249211-15.765832 35.249211-35.248188 0-19.480311-15.765832-35.246143-35.249211-35.246143-19.447594 0-35.214448 15.765832-35.214448 35.246143C476.7513 952.820642 492.519178 968.586474 511.966771 968.586474L511.966771 968.586474zM758.536411 105.644367l-17.656301 0L283.055477 105.644367l-17.591888 0 0 739.607699 17.591888 0 457.825656 0 17.656301 0L758.537433 105.644367 758.536411 105.644367z" p-id="6976"></path></svg>