<?xml version="1.0" standalone="no"?><!DOCTYPE svg PUBLIC "-//W3C//DTD SVG 1.1//EN" "http://www.w3.org/Graphics/SVG/1.1/DTD/svg11.dtd"><svg t="1576283909234" class="icon" viewBox="0 0 1135 1024" version="1.1" xmlns="http://www.w3.org/2000/svg" p-id="5833" xmlns:xlink="http://www.w3.org/1999/xlink" width="554.19921875" height="500"><defs><style type="text/css"></style></defs><path d="M91.714763 244.869735h951.874575A69.453898 69.453898 0 0 1 1113.043236 314.323633V422.956652H22.260865v-108.633019A69.453898 69.453898 0 0 1 91.714763 244.869735z" fill="#EFEFEF" p-id="5834"></path><path d="M22.260865 400.695788l1090.782371 0 0 601.043347-1090.782371 0 0-601.043347Z" fill="#FFFFFF" p-id="5835"></path><path d="M66.782594 489.739247l1001.738913 0 0 511.999888-1001.738913 0 0-511.999888Z" fill="#EFEFEF" p-id="5836" data-spm-anchor-id="a313x.7781069.0.i5" class="selected"></path><path d="M1124.173669 411.82622a60.549552 60.549552 0 0 1-33.391297 41.627817L616.180736 623.304435a172.521702 172.521702 0 0 1-119.095627 0L44.521729 453.676646A61.439987 61.439987 0 0 1 11.130432 411.82622" fill="#EFEFEF" p-id="5837"></path><path d="M557.85727 645.5653a183.874743 183.874743 0 0 1-64.556508-11.57565L40.959991 464.139252A71.012158 71.012158 0 0 1 0 411.82622h22.260865a52.535641 52.535641 0 0 0 26.490429 31.387819l452.340771 169.62779a161.391269 161.391269 0 0 0 111.304324 0L1086.330199 442.991431a51.867815 51.867815 0 0 0 26.713037-31.165211h22.260865a70.344333 70.344333 0 0 1-41.405208 52.090423l-473.93381 170.740833a183.652134 183.652134 0 0 1-62.107813 10.907824z" fill="" p-id="5838"></path><path d="M103.513021 233.739302h934.956318a85.704329 85.704329 0 0 1 85.70433 85.704329v92.382589H11.130432v-85.704329a92.382589 92.382589 0 0 1 92.382589-92.382589z" fill="#EFEFEF" p-id="5839"></path><path d="M1035.13021 1024h-934.956319A100.173891 100.173891 0 0 1 0 923.826109v-601.043348A100.173891 100.173891 0 0 1 100.173891 222.60887h934.956319a100.173891 100.173891 0 0 1 100.173891 100.173891v601.043348a100.173891 100.173891 0 0 1-100.173891 100.173891z m-934.956319-779.130265A77.913027 77.913027 0 0 0 22.260865 322.782761v601.043348A77.913027 77.913027 0 0 0 100.173891 1001.739135h934.956319a77.913027 77.913027 0 0 0 77.913026-77.913026v-601.043348a77.913027 77.913027 0 0 0-77.913026-77.913026z" fill="" p-id="5840"></path><path d="M554.51814 634.212259L144.695621 478.608814v-378.4347a89.043459 89.043459 0 0 1 89.043459-89.043459h667.825941a89.043459 89.043459 0 0 1 89.043459 89.043459v378.4347z" fill="#FFFFFF" p-id="5841"></path><path d="M554.51814 645.5653a10.907824 10.907824 0 0 1-4.006955 0L140.688665 489.739247a11.130432 11.130432 0 0 1-7.123477-11.130433v-378.4347A100.173891 100.173891 0 0 1 233.516471 0.000223h667.825942A100.173891 100.173891 0 0 1 1001.738913 99.951505v378.434701a11.130432 11.130432 0 0 1-7.346086 10.462606L558.302487 645.5653a11.130432 11.130432 0 0 1-3.784347 0zM155.826053 470.817512L554.740749 623.304435 979.478048 470.817512V99.951505A77.913027 77.913027 0 0 0 901.78763 22.261087h-667.825942A77.913027 77.913027 0 0 0 155.826053 99.951505z" fill="" p-id="5842"></path><path d="M333.912971 178.08714h222.608647v22.260865H333.912971zM333.912971 289.391464h445.217294v22.260865H333.912971zM333.912971 400.695788h445.217294v22.260864H333.912971zM972.354571 790.706138q2.226086-6.900868 7.568694-3.561739a4.006956 4.006956 0 0 1 2.448695 2.893913 12.911302 12.911302 0 0 1 0 6.455651q-5.342608 16.918257-11.575649 34.281731t-11.57565 34.281732a65.446942 65.446942 0 0 0-2.226086 7.123477 26.045212 26.045212 0 0 0 0 5.342607 8.681737 8.681737 0 0 0 2.893912 7.568694 12.911302 12.911302 0 0 0 7.568694 2.003478 23.373908 23.373908 0 0 0 13.13391-5.565216 69.453898 69.453898 0 0 0 14.246954-14.469562 92.382589 92.382589 0 0 0 11.575649-20.925213 65.224334 65.224334 0 0 0 4.89739-24.70956 60.772161 60.772161 0 0 0-6.678259-28.271298 75.464331 75.464331 0 0 0-17.808692-22.260865 84.591286 84.591286 0 0 0-26.713037-14.024345 82.587808 82.587808 0 0 0-29.829559-5.565216 81.474765 81.474765 0 0 0-33.613906 7.123477 92.382589 92.382589 0 0 0-28.493907 19.812169 98.838239 98.838239 0 0 0-19.812169 29.606951 89.043459 89.043459 0 0 0-7.568694 36.507818 84.813895 84.813895 0 0 0 6.900868 34.949557 78.580852 78.580852 0 0 0 18.921735 26.490429 83.255634 83.255634 0 0 0 28.493907 16.918257 105.071282 105.071282 0 0 0 35.617383 5.787825 122.434756 122.434756 0 0 0 22.260865-2.003477 79.02607 79.02607 0 0 0 19.81217-6.455651 89.043459 89.043459 0 0 0 18.0313-11.798259 146.47649 146.47649 0 0 0 17.808692-17.808691q2.226086-2.893912 4.452173-1.558261a6.678259 6.678259 0 0 1 3.116521 3.561738 17.140866 17.140866 0 0 1-2.671304 6.67826 58.323466 58.323466 0 0 1-8.459129 10.239998 101.732152 101.732152 0 0 1-31.610428 22.260864 106.406933 106.406933 0 0 1-43.186077 8.459129 116.201714 116.201714 0 0 1-39.624339-6.678259 95.944327 95.944327 0 0 1-31.833037-20.702605 89.043459 89.043459 0 0 1-22.260865-30.497384 99.283457 99.283457 0 0 1-8.013911-40.737383 96.389544 96.389544 0 0 1 8.904346-40.069556 107.742585 107.742585 0 0 1 22.260865-32.500863 103.73563 103.73563 0 0 1 32.278254-22.260864 94.386066 94.386066 0 0 1 37.398252-7.791303 98.615631 98.615631 0 0 1 35.172167 6.233042 93.71824 93.71824 0 0 1 29.161732 17.363474 83.033025 83.033025 0 0 1 19.81217 26.267821 74.351288 74.351288 0 0 1 7.791303 34.949557 75.68694 75.68694 0 0 1-5.565217 28.271299 91.046937 91.046937 0 0 1-14.246953 24.486951 75.68694 75.68694 0 0 1-19.81217 17.140866 42.963469 42.963469 0 0 1-22.260864 6.45565 13.579127 13.579127 0 0 1-10.907824-4.89739 40.292165 40.292165 0 0 1-7.123477-14.914779 74.796505 74.796505 0 0 1-17.808692 13.579127 38.288687 38.288687 0 0 1-18.0313 4.452173 30.052167 30.052167 0 0 1-15.582605-3.784347 31.833037 31.833037 0 0 1-10.462607-9.572172 39.401731 39.401731 0 0 1-5.787825-12.911301 58.323466 58.323466 0 0 1-1.780869-14.024345 75.241723 75.241723 0 0 1 4.674782-24.932168 91.492154 91.492154 0 0 1 13.13391-24.486952 75.68694 75.68694 0 0 1 19.81217-18.476517 46.07999 46.07999 0 0 1 25.377385-8.23652 29.829559 29.829559 0 0 1 18.921736 6.455651 36.507818 36.507818 0 0 1 11.353041 22.260864zM912.695454 886.205247a33.613906 33.613906 0 0 0 22.260864-10.017389 73.683462 73.683462 0 0 0 17.586084-31.16521q3.784347-11.130432 5.565216-18.031301a47.860859 47.860859 0 0 0 1.780869-11.353041 18.921735 18.921735 0 0 0-6.455651-14.914779 24.932168 24.932168 0 0 0-17.140866-5.565216 35.839992 35.839992 0 0 0-19.812169 6.010433 60.994769 60.994769 0 0 0-15.805214 15.137388 76.577375 76.577375 0 0 0-10.462607 20.034778 61.885204 61.885204 0 0 0-3.784347 20.479996 30.497385 30.497385 0 0 0 6.455651 22.260865 24.70956 24.70956 0 0 0 19.81217 7.123476z" fill="" p-id="5843" data-spm-anchor-id="a313x.7781069.0.i6" class="selected"></path></svg>