<?xml version="1.0" standalone="no"?><!DOCTYPE svg PUBLIC "-//W3C//DTD SVG 1.1//EN" "http://www.w3.org/Graphics/SVG/1.1/DTD/svg11.dtd"><svg t="1597480081486" class="icon" viewBox="0 0 1024 1024" version="1.1" xmlns="http://www.w3.org/2000/svg" p-id="7499" xmlns:xlink="http://www.w3.org/1999/xlink" width="200" height="200"><defs><style type="text/css"></style></defs><path d="M781.775 317.87H242.224c-19.835 0-35.914-16.08-35.914-35.914 0-19.835 16.079-35.914 35.914-35.914h539.551c19.834 0 35.914 16.079 35.914 35.914 0 19.834-16.079 35.914-35.914 35.914z m-51.263-117.326H293.488c-19.834 0-35.914-16.079-35.914-35.913 0-19.835 16.08-35.914 35.914-35.914h437.024c19.833 0 35.914 16.079 35.914 35.914 0 19.834-16.08 35.913-35.914 35.913z m168.71 272.674c0-55.22-44.923-100.113-100.11-100.113H224.888c-55.204 0-100.111 44.907-100.111 100.112V795.17c0 55.205 44.907 100.112 100.11 100.112h574.224c55.188 0 100.112-44.907 100.112-100.112V473.218zM542.808 600.943l70.63-0.064c18.132 0.019 32.854 13.62 32.888 30.345 0.042 16.718-14.603 30.251-32.753 30.215l-70.707 0.065 0.037 37.039 70.54-0.066c18.13 0.037 32.852 13.62 32.886 30.345 0.042 16.718-14.605 30.253-32.753 30.214l-70.634 0.066 0.04 36.706c-0.038 17.727-13.932 32.118-31.063 32.155-17.094 0.037-30.949-14.29-30.909-32.015l-0.04-36.78-70.483 0.056c-18.127-0.022-32.87-13.618-32.887-30.349-0.037-16.714 14.631-30.25 32.74-30.213l70.576-0.063-0.04-37.028-70.389 0.058c-18.127-0.04-32.87-13.622-32.887-30.348-0.037-16.718 14.631-30.251 32.74-30.214l70.48-0.074V587.33l-93.974-92.096c-12.878-12.534-12.878-32.866 0-45.406 12.895-12.534 33.79-12.534 46.686 0l78.459 76.919 78.502-76.921c12.877-12.535 33.773-12.535 46.652 0 12.89 12.54 12.89 32.872 0 45.406l-94.355 92.48 0.018 13.23z" p-id="7500"></path></svg>