<?xml version="1.0" standalone="no"?><!DOCTYPE svg PUBLIC "-//W3C//DTD SVG 1.1//EN" "http://www.w3.org/Graphics/SVG/1.1/DTD/svg11.dtd"><svg t="1597480155715" class="icon" viewBox="0 0 1130 1024" version="1.1" xmlns="http://www.w3.org/2000/svg" p-id="10188" xmlns:xlink="http://www.w3.org/1999/xlink" width="220.703125" height="200"><defs><style type="text/css"></style></defs><path d="M319.811393 432.542825H199.201741c-45.732166 0-94.091951 47.973371-94.091951 93.773159V654.876116c0 45.799789 1.59396 82.064797 47.103938 82.180722h126.541116a479.897932 479.897932 0 0 0 38.206742 116.610261h-70.713869v93.773159c0 60.41592-105.780992 66.386026-105.780992 0v-100.757603s-36.04282-0.676226-50.06967-0.676225C-2.274823 845.929147 0.005023 764.830386 0.005023 740.56355v-247.788352c0-97.009381 76.133333-148.093389 119.305503-153.725382l105.433219-236.814177C244.933907 48.243861 289.139736 2.105959 372.672909 2.105959h153.503193S529.04523 0 554.703159 0h63.584519c25.43574 0 75.273561 2.105959 75.273561 2.105959h104.360919c83.426909 0 127.613416 46.253826 148.151352 100.13934L1004.682942 229.375697a484.129172 484.129172 0 0 0-139.940042-55.807926l-12.886926-32.169014c-10.095081-31.425166-29.995432-35.859273-65.584215-36.371273h-399.166266c-35.76267 0.511999-61.140448 5.119993-71.177566 36.371273l-69.564286 186.058622h143.697924a485.220793 485.220793 0 0 0-70.250172 105.143408v-0.057962z m700.067302-51.605668C1091.075582 451.950497 1130.267682 546.660712 1130.267682 647.215447a375.527353 375.527353 0 0 1-110.388987 266.394214C948.807393 984.796888 854.106839 1023.998648 753.542443 1023.998648a374.290826 374.290826 0 0 1-266.442516-110.388987 376.657616 376.657616 0 0 1-73.40911-103.172694A371.779132 371.779132 0 0 1 376.759243 647.273409a374.1266 374.1266 0 0 1 110.340684-266.452176 385.690057 385.690057 0 0 1 42.544246-36.641763A373.32479 373.32479 0 0 1 753.484481 270.490209a373.952714 373.952714 0 0 1 266.394214 110.446948z m1.874111 287.753281a269.45655 269.45655 0 0 0-268.316627-290.535466c-148.557087 0.212528-268.915569 120.619312-269.070135 269.176399a267.698363 267.698363 0 0 0 59.60445 168.727929 268.384249 268.384249 0 0 0 209.629911 100.332546c140.229853-0.193207 256.859434-107.925593 268.152401-247.691748zM727.681647 546.245316v100.506434h48.22454c3.429429 1.255847 11.833947-1.081961 25.310156-6.984444 13.427907-5.892822 21.156198-20.905029 22.972347-45.075261 0.579622-5.892822-1.709885-15.060508-6.965123-27.483738-5.255238-12.365267-17.147147-19.359371-35.714368-20.905029h-53.827552v-0.057962z m-70.520661 241.798926V520.239615c-0.908074-3.71924 0.579622-10.529797 4.636975-20.499294 3.999391-9.911534 15.427602-15.456583 34.284634-16.722091h81.707363c4.636975 0 13.205718 1.033659 25.715891 3.033354 12.577795 2.009356 26.111966 6.762255 40.631493 14.152435 14.509868 7.438481 27.078002 18.895673 37.598139 34.18803 10.510477 15.350319 16.055526 36.081462 16.68345 62.077503 0 4.009051-1.081961 11.853267-3.255543 23.474686a132.830013 132.830013 0 0 1-14.625792 38.380628c-7.544745 13.968887-19.426993 25.947739-35.434217 36.081462-16.113488 10.017798-37.936252 15.234395-65.477951 15.514546h-51.943781v78.123368c0.579622 3.149279-1.081961 9.100063-5.139314 17.919977-3.999391 8.819913-14.05583 13.862623-30.121017 15.128131a48.185899 48.185899 0 0 1-21.368726-4.009052c-8.626706-3.207241-13.25402-12.886926-13.881944-29.039056z" p-id="10189"></path></svg>