<?xml version="1.0" standalone="no"?><!DOCTYPE svg PUBLIC "-//W3C//DTD SVG 1.1//EN" "http://www.w3.org/Graphics/SVG/1.1/DTD/svg11.dtd"><svg t="1597479779563" class="icon" viewBox="0 0 1024 1024" version="1.1" xmlns="http://www.w3.org/2000/svg" p-id="4404" xmlns:xlink="http://www.w3.org/1999/xlink" width="200" height="200"><defs><style type="text/css"></style></defs><path d="M739.968 690.730667l38.613333-38.186667c1.28-1.28 1.28-2.986667 0.042667-4.224l-303.786667-294.954667-74.410666-7.253333c-2.56 9.045333-5.802667 18.432-9.984 27.989333-24.405333 55.722667-71.253333 89.514667-138.581334 81.578667-66.901333-7.893333-103.381333-49.408-106.88-107.434667a201.386667 201.386667 0 0 1 6.272-59.605333c3.285333-13.568 6.613333-23.850667 11.989334-38.912 0.682667-1.834667 5.632-18.773333 7.552-24.576 4.992-15.445333 10.538667-29.184 17.834666-42.666667 35.498667-65.706667 99.84-100.650667 196.224-88.874666a2636.416 2636.416 0 0 1 240.213334 40.746666l35.498666-32.512a131.882667 131.882667 0 0 1 181.930667 4.48L972.8 238.08a129.194667 129.194667 0 0 1 0.256 181.162667l-46.08 46.848a42.581333 42.581333 0 0 1-34.432 12.544 42.581333 42.581333 0 0 1-35.712-12.416l-242.773333-246.869334a2456.149333 2456.149333 0 0 0-140.032-26.88 2551.210667 2551.210667 0 0 0-99.498667-14.165333c-60.842667-7.424-91.733333 9.301333-110.805333 44.714667-4.522667 8.362667-8.234667 17.493333-11.733334 28.373333-1.194667 3.712-6.741333 22.528-8.405333 27.178667-9.728 27.008-14.506667 46.72-13.44 64.554666 1.109333 18.005333 7.168 24.917333 31.744 27.818667 25.898667 3.029333 39.850667-6.997333 50.346667-31.061333 6.912-15.786667 9.856-32.469333 10.325333-41.984a42.666667 42.666667 0 0 1 46.72-40.533334l128.682667 12.501334a42.666667 42.666667 0 0 1 25.6 11.861333l314.538666 305.365333c35.541333 34.56 35.754667 91.221333 0.512 126.122667l-248.789333 246.058667a90.624 90.624 0 0 1-126.336 0.768L29.952 542.421333a42.666667 42.666667 0 0 1 59.178667-61.44l433.578666 417.621334a5.290667 5.290667 0 0 0 7.082667 0l40.746667-40.32-127.786667-126.506667a42.666667 42.666667 0 0 1 60.032-60.629333l128.426667 127.146666 48.042666-47.530666-127.402666-120.192a42.666667 42.666667 0 1 1 58.581333-62.08l129.536 122.24z m-41.813333-507.562667l193.706666 196.949333 20.394667-20.736a43.861333 43.861333 0 0 0-0.128-61.312L781.824 166.4a46.549333 46.549333 0 0 0-63.616-1.578667l-20.053333 18.346667z" p-id="4405"></path></svg>