<?xml version="1.0" standalone="no"?><!DOCTYPE svg PUBLIC "-//W3C//DTD SVG 1.1//EN" "http://www.w3.org/Graphics/SVG/1.1/DTD/svg11.dtd"><svg t="1597480224846" class="icon" viewBox="0 0 1024 1024" version="1.1" xmlns="http://www.w3.org/2000/svg" p-id="10998" xmlns:xlink="http://www.w3.org/1999/xlink" width="200" height="200"><defs><style type="text/css"></style></defs><path d="M876.6957037 577.65736297c-45.02565925 0-87.86678518-13.71401482-123.42613333-39.56432594-72.33232592 52.18607408-177.43265185 51.4578963-248.67271112-1.82044444-68.69143703 51.09380741-168.81588148 54.7346963-241.51229628 6.06814816-34.58844445 23.05896297-74.88094815 35.31662222-115.90162964 35.31662222-17.59762963 0-34.58844445-2.18453333-50.72971851-6.43223705v278.8920889c0 59.71057778 48.54518518 108.01303703 108.01303703 108.01303703h614.7034074c59.71057778 0 108.01303703-48.1810963 108.01303705-108.01303703V571.58921482c-16.26263703 3.88361482-33.13208889 6.06814815-50.4869926 6.06814815zM740.04100741 832.1554963h-456.32474074v-71.96823705h456.32474074v71.96823705zM1015.6562963 372.91804445c-3.2768 73.78868148-64.44373333 132.77108148-138.9605926 132.77108147-37.0157037 0-71.60414815-14.0781037-98.304-40.2925037-6.79632592-6.79632592-15.77718518-10.43721482-25.24349629-10.43721481-8.98085925 0-18.32580741 3.64088889-25.2434963 10.43721481-26.2144 26.2144-61.16693333 40.2925037-97.93991111 40.2925037-37.74388148 0-73.42459259-15.17037037-100.00308148-42.47703703-13.34992592-14.0781037-38.10797037-14.0781037-51.4578963 0-26.57848889 27.30666667-61.89511111 42.47703703-99.63899259 42.47703703-33.49617778 0-66.26417778-12.62174815-92.11448888-35.31662222-13.71401482-12.25765925-34.22435555-12.25765925-47.81700742 0-25.85031111 22.69487408-58.25422222 35.31662222-91.7504 35.31662222-74.88094815 0-135.68379259-58.9824-138.96059258-132.77108147l85.68225184-229.25463704c15.53445925-41.38477037 67.59917037-77.79365925 111.89665186-77.79365926h611.7906963c44.29748148 0 96.84764445 36.28752592 112.26074073 77.79365926L1015.6562963 372.91804445z" p-id="10999"></path></svg>