<?xml version="1.0" standalone="no"?><!DOCTYPE svg PUBLIC "-//W3C//DTD SVG 1.1//EN" "http://www.w3.org/Graphics/SVG/1.1/DTD/svg11.dtd"><svg t="1597479190943" class="icon" viewBox="0 0 1092 1024" version="1.1" xmlns="http://www.w3.org/2000/svg" p-id="11813" xmlns:xlink="http://www.w3.org/1999/xlink" width="213.28125" height="200"><defs><style type="text/css"></style></defs><path d="M117.77333362 488.57l36.11999971 39.35999971a23.4 23.4 0 0 0 17.21999971 9 23.22 23.22 0 0 0 18.84000058-7.38L555.83333333 206.44999971l365.87999971 323.16000029a23.22 23.22 0 0 0 18.84000058 7.4400003 23.4 23.4 0 0 0 17.21999971-9l36.11999971-39.42a25.98000029 25.98000029 0 0 0 5.70000058-18.9 29.27999971 29.27999971 0 0 0-9-18.84000059l-119.76000029-104.99999941v-178.8000003a25.56 25.56 0 0 0-7.38-18.9 25.56 25.56 0 0 0-18.9-7.38h-52.49999971a25.56 25.56 0 0 0-18.84000058 7.38 25.56 25.56 0 0 0-7.38 18.9v85.25999971l-165.71999971-147.6A67.38000029 67.38000029 0 0 0 555.83333333 88.25c-16.38 0-30.6 5.46000029-42.66 16.38L121.07333304 450.8300003a29.27999971 29.27999971 0 0 0-9 18.8399997 25.98000029 25.98000029 0 0 0 5.70000058 18.9zM1005.35333362 823.2500003a194.15999971 194.15999971 0 0 1-84.66000029-30.3000003l-10.50000029-7.44000029a61.08000029 61.08000029 0 0 0-39.35999971-13.14c-15.3 0-28.44 4.38000029-39.35999971 13.20000029-31.74000029 25.08000029-71.64 37.37999971-119.76000029 36.83999971-48.12000029-0.54-88.08000029-13.92000029-119.76000029-40.19999941a51.95999971 51.95999971 0 0 0-37.8-11.46000059c-14.15999971 1.08-26.75999971 6.00000029-37.67999942 14.76-31.74000029 25.2-71.64 37.44-119.76000029 36.9-48.12000029-0.54-88.08000029-13.38000029-119.76000029-38.52a45 45 0 0 0-36.95999942-13.14c-14.76 1.08-28.19999971 6.59999971-40.20000029 16.38-26.21999971 19.73999971-57.42 31.79999971-93.48000029 36.12000059a27.36 27.36 0 0 0-16.43999942 9 25.13999971 25.13999971 0 0 0-6.54000029 17.2199997v52.49999971c0 7.67999971 2.76000029 13.97999971 8.21999971 18.9 5.4 4.92000029 11.99999971 7.38 19.68000029 7.38a288.96000029 288.96000029 0 0 0 129.6-42.59999971c45.96000029 28.37999971 98.70000029 42.59999971 158.33999971 42.59999971 59.58 0 111.84000029-14.22 156.66000029-42.59999971 45.96000029 28.37999971 98.70000029 42.59999971 158.33999971 42.59999971 59.58 0 111.84000029-14.22 156.66000029-42.59999971a298.19999971 298.19999971 0 0 0 129.6 42.59999971 28.44 28.44 0 0 0 19.68000029-7.38 24.23999971 24.23999971 0 0 0 8.21999971-18.9v-52.49999971a25.13999971 25.13999971 0 0 0-6.59999971-17.2199997 27.36 27.36 0 0 0-16.38-9zM555.83333333 276.9500003l-315 278.87999941v162.42000029h1.62c22.5 0 42.59999971 6.00000029 60.3 18.0600003l8.64 6.5999997c21.84000029 18.60000029 50.58 27.83999971 86.10000029 27.83999971 31.14 0 56.99999971-6.72000029 77.63999942-20.09999971l8.52000029-6.12a114.00000029 114.00000029 0 0 1 73.01999971-26.28c22.92000029 0 43.31999971 6.00000029 61.08000029 18.0600003l8.64 6.5999997c21.84000029 18.60000029 50.82000029 27.83999971 86.94 27.83999971 31.56000029 0 57.30000029-6.48 77.15999971-19.44l8.16000029-5.99999941a110.88 110.88 0 0 1 72.18-25.4400003V555.82999971l-315-278.87999941z m52.49999971 178.79999941c7.67999971 0 13.92000029 2.45999971 18.84000058 7.38a25.56 25.56 0 0 1 7.38 18.9v105.00000029a25.56 25.56 0 0 1-7.38 18.83999971 25.56 25.56 0 0 1-18.84000058 7.38H503.33333362a25.56 25.56 0 0 1-18.84000058-7.38 25.56 25.56 0 0 1-7.43999942-18.83999971v-105.00000029c0-7.67999971 2.45999971-13.97999971 7.43999942-18.9A25.56 25.56 0 0 1 503.33333362 455.74999971h104.99999942z" p-id="11814"></path></svg>