<?xml version="1.0" standalone="no"?><!DOCTYPE svg PUBLIC "-//W3C//DTD SVG 1.1//EN" "http://www.w3.org/Graphics/SVG/1.1/DTD/svg11.dtd"><svg t="1597479952114" class="icon" viewBox="0 0 1024 1024" version="1.1" xmlns="http://www.w3.org/2000/svg" p-id="5962" xmlns:xlink="http://www.w3.org/1999/xlink" width="200" height="200"><defs><style type="text/css"></style></defs><path d="M657.765 230.488h97.92V97.568c0-8.59-3.18-17.182-9.505-23.784C739.813 67.262 731.505 64 723.191 64H592.857v99.351c0 17.182 6.324 34.364 19.012 47.49 12.686 13.045 29.312 19.647 45.896 19.647zM480.42 761.293v-13.44c0-3.58 0.277-7.794 0.873-12.568H267.475c-14.994 0-27.84-5.328-38.5-16.072-10.699-10.737-16.029-23.862-16.029-39.372 0-15.515 5.33-28.799 16.03-39.855 10.658-11.052 23.505-16.544 38.5-16.544h251.879c21.913-35.243 50.949-63.319 86.983-84.16 36.074-20.92 75.766-31.34 119.04-31.34 4.617 0 9.506 0.16 14.715 0.477 5.17 0.238 10.377 0.716 15.59 1.352v-222.01H629.289c-16.149 0-29.989-3.74-41.563-11.217-11.534-7.477-20.88-16.704-28.12-27.76-7.197-10.978-12.528-23.07-15.988-36.194-3.463-13.125-5.213-25.375-5.213-36.75V64H137.223c-8.313 0-16.628 3.26-22.95 9.784-6.363 6.602-9.505 15.194-9.505 23.784v660.304h-0.04v112.954c0 8.59 3.182 17.184 9.505 23.787 6.325 6.522 14.636 9.779 22.95 9.779h76.84c0.796 0.08 1.592 0.08 2.387 0.08h307.284c-13.841-20.284-24.503-42.477-32.018-66.66-7.52-24.179-11.257-49.711-11.257-76.519zM228.977 415.75c10.66-10.738 23.506-16.067 38.5-16.067h324.584c14.995 0 27.841 5.33 38.54 16.067 10.659 10.74 15.99 23.864 15.99 39.375 0 15.512-5.331 28.796-15.99 39.85-10.699 11.056-23.545 16.546-38.54 16.546H267.477c-14.994 0-27.84-5.49-38.5-16.547-10.699-11.053-16.029-24.34-16.029-39.849 0-15.511 5.33-28.637 16.03-39.375z m675.14 270.295c-10.102-23.866-23.824-44.705-41.124-62.602-17.302-17.899-37.503-32.136-60.573-42.555-23.069-10.424-47.888-15.672-74.455-15.672-25.971 0-50.472 5.248-73.58 15.672-23.064 10.415-43.272 24.656-60.572 42.555-17.303 17.896-31.024 38.737-41.124 62.602-10.102 23.864-15.152 49.238-15.152 76.124 0 27.443 5.049 53.136 15.152 77 10.104 23.866 23.826 44.706 41.124 62.602 17.3 17.9 37.504 32.135 60.572 42.558 23.109 10.42 47.609 15.67 73.58 15.67 26.567 0 51.385-5.25 74.455-15.67 23.066-10.419 43.271-24.658 60.573-42.558 17.303-17.896 31.026-38.736 41.124-62.602 10.103-23.863 15.153-49.556 15.153-77 0-26.886-5.05-52.261-15.153-76.124z m-42.997-3.371L685.09 875.963a6.82 6.82 0 0 1-4.803 2.231 6.823 6.823 0 0 1-4.957-1.868l-79.294-75.063a6.828 6.828 0 0 1-2.139-4.895 6.816 6.816 0 0 1 2.036-4.94l24.521-24.203a6.834 6.834 0 0 1 9.579-0.032l45.11 43.969a6.82 6.82 0 0 0 5.047 1.938 6.818 6.818 0 0 0 4.877-2.334l141.086-161.414a6.822 6.822 0 0 1 4.883-2.333 6.824 6.824 0 0 1 5.048 1.944l24.76 24.215a6.819 6.819 0 0 1 2.055 4.693 6.814 6.814 0 0 1-1.78 4.802z" fill="" p-id="5963"></path></svg>