<?xml version="1.0" standalone="no"?><!DOCTYPE svg PUBLIC "-//W3C//DTD SVG 1.1//EN" "http://www.w3.org/Graphics/SVG/1.1/DTD/svg11.dtd"><svg t="1597480275703" class="icon" viewBox="0 0 1024 1024" version="1.1" xmlns="http://www.w3.org/2000/svg" p-id="11756" xmlns:xlink="http://www.w3.org/1999/xlink" width="200" height="200"><defs><style type="text/css"></style></defs><path d="M992 960H32a32 32 0 0 0 0 64h960a32 32 0 0 0 0-64zM128 896h64a64 64 0 0 0 64-64V384a64 64 0 0 0-64-64H128a64 64 0 0 0-64 64v448a64 64 0 0 0 64 64z m352 0h64a64 64 0 0 0 64-64V64a64 64 0 0 0-64-64h-64a64 64 0 0 0-64 64v768a64 64 0 0 0 64 64z m352 0h64a64 64 0 0 0 64-64V576a64 64 0 0 0-64-64h-64a64 64 0 0 0-64 64v256a64 64 0 0 0 64 64z" fill="#797C80" p-id="11757"></path></svg>