<?xml version="1.0" standalone="no"?><!DOCTYPE svg PUBLIC "-//W3C//DTD SVG 1.1//EN" "http://www.w3.org/Graphics/SVG/1.1/DTD/svg11.dtd"><svg t="1597479619621" class="icon" viewBox="0 0 1024 1024" version="1.1" xmlns="http://www.w3.org/2000/svg" p-id="3615" xmlns:xlink="http://www.w3.org/1999/xlink" width="200" height="200"><defs><style type="text/css"></style></defs><path d="M411.561 285.358h210.19c65.044 0 114.657-141.051 114.657-141.051 0-42.24-4.229-74.199-76.457-76.452-72.197-2.273-89.498 50.488-141.39 50.488-53.187 0-79.785-41.482-145.234-50.487-65.423-9.052-76.43 34.212-76.431 76.452 0 0 49.596 141.051 114.662 141.051zM633.226 328.96h-221.665c-245.464 0-305.746 482.237-305.746 482.237 0 63.345 51.338 126.966 114.657 126.966h603.827c63.319 0 114.652-63.621 114.652-126.966 0 0-60.303-482.237-305.725-482.237zM658.386 699.576c14.787 0 26.772 12.006 26.772 26.798s-11.981 26.793-26.772 26.793h-108.692v70.292c0 14.787-11.981 26.798-26.752 26.799-14.787 0-26.772-12.012-26.772-26.798v-70.292h-109.384c-14.793 0-26.772-12.001-26.772-26.793s11.981-26.798 26.772-26.798h109.389v-33.998h-109.389c-14.793 0-26.772-11.986-26.772-26.778 0-14.787 11.981-26.813 26.772-26.813h73.944l-75.709-134.548c-7.393-12.836-2.995-29.194 9.795-36.589 12.815-7.398 29.174-3.021 36.567 9.774l91.162 161.362h4.613l91.156-161.362c7.393-12.795 23.757-17.172 36.547-9.774 12.815 7.393 17.213 23.752 9.815 36.588l-75.709 134.548h69.422c14.787 0 26.772 12.027 26.772 26.813s-11.981 26.778-26.772 26.778h-108.692v33.998h108.692z" p-id="3616"></path></svg>