<?xml version="1.0" standalone="no"?><!DOCTYPE svg PUBLIC "-//W3C//DTD SVG 1.1//EN" "http://www.w3.org/Graphics/SVG/1.1/DTD/svg11.dtd"><svg t="1597480010004" class="icon" viewBox="0 0 1024 1024" version="1.1" xmlns="http://www.w3.org/2000/svg" p-id="6725" xmlns:xlink="http://www.w3.org/1999/xlink" width="200" height="200"><defs><style type="text/css"></style></defs><path d="M844.8 128a25.6 25.6 0 0 0-25.6-25.6H358.4a25.6 25.6 0 0 0-25.6 25.6v433.7408l51.456 0.256a51.2 51.2 0 0 1 50.944 51.2v104.0384h179.0464l-0.4352-101.8624a51.2 51.2 0 0 1 50.8672-51.4048L844.8 562.7904V128zM179.2 562.6624l102.4-0.5632V128a76.8 76.8 0 0 1 76.8-76.8h460.8a76.8 76.8 0 0 1 76.8 76.8v435.2h25.6a51.2 51.2 0 0 1 51.2 51.2v307.2a51.2 51.2 0 0 1-51.2 51.2H102.4a51.2 51.2 0 0 1-51.2-51.2V614.272a51.2 51.2 0 0 1 50.944-51.2L128 562.9184V230.4c0-41.088 26.8032-76.8 64-76.8H230.4a25.6 25.6 0 1 1 0 51.2H192c-5.1968 0-12.8 10.112-12.8 25.6v332.2624zM435.2 179.2a25.6 25.6 0 0 0 0 51.2h307.2a25.6 25.6 0 0 0 0-51.2H435.2z m0 153.6a25.6 25.6 0 0 0 0 51.2h307.2a25.6 25.6 0 0 0 0-51.2H435.2z m0 153.6a25.6 25.6 0 0 0 0 51.2h307.2a25.6 25.6 0 0 0 0-51.2H435.2z" p-id="6726"></path></svg>